<svg id="Layer_2" data-name="Layer 2" xmlns="http://www.w3.org/2000/svg" viewBox="0 0 128 128"><title>DJEMBE</title><path d="M97.347,35.248H70.921V25.87a7.125,7.125,0,1,0-14.25,0v9.378H30.246a7.125,7.125,0,1,0,0,14.25h1.231v54.1a7.1,7.1,0,0,0,7.087,7.087H89.028a7.1,7.1,0,0,0,7.088-7.087V49.5h1.23a7.125,7.125,0,1,0,0-14.25ZM60.171,25.87a3.625,3.625,0,1,1,7.25,0v9.378h-7.25ZM92.616,103.6a3.592,3.592,0,0,1-3.588,3.587H38.564a3.591,3.591,0,0,1-3.587-3.587V49.5h57.64ZM97.347,46h-67.1a3.625,3.625,0,1,1,0-7.25h67.1a3.625,3.625,0,1,1,0,7.25Z"/><path d="M107.318,23.488a1.75,1.75,0,0,0,1.75-1.75V19.063a1.75,1.75,0,1,0-3.5,0v2.675A1.75,1.75,0,0,0,107.318,23.488Z"/><path d="M104.06,23.441h-2.675a1.75,1.75,0,0,0,0,3.5h2.675a1.75,1.75,0,1,0,0-3.5Z"/><path d="M107.513,26.7a1.75,1.75,0,0,0-1.75,1.75v2.676a1.75,1.75,0,0,0,3.5,0V28.45A1.75,1.75,0,0,0,107.513,26.7Z"/><path d="M113.447,23.247h-2.676a1.75,1.75,0,0,0,0,3.5h2.676a1.75,1.75,0,1,0,0-3.5Z"/><path d="M20.487,65.226a1.75,1.75,0,0,0,1.75-1.75V60.8a1.75,1.75,0,0,0-3.5,0v2.675A1.75,1.75,0,0,0,20.487,65.226Z"/><path d="M17.229,65.179H14.553a1.75,1.75,0,0,0,0,3.5h2.675a1.75,1.75,0,1,0,0-3.5Z"/><path d="M20.682,68.438a1.75,1.75,0,0,0-1.75,1.75v2.676a1.75,1.75,0,0,0,3.5,0V70.188A1.75,1.75,0,0,0,20.682,68.438Z"/><path d="M26.616,64.984H23.94a1.75,1.75,0,0,0,0,3.5h2.675a1.75,1.75,0,1,0,0-3.5Z"/><path d="M39.734,93.082h3.25v3.125a1.75,1.75,0,0,0,3.5,0V93.082h9.208v3.125a1.75,1.75,0,0,0,3.5,0V93.082H68.4v3.125a1.75,1.75,0,0,0,3.5,0V93.082h9.208v3.125a1.75,1.75,0,0,0,3.5,0V93.082h3.25a1.75,1.75,0,0,0,1.75-1.75v-29a1.75,1.75,0,0,0-1.75-1.75h-3.25V54.494a1.75,1.75,0,0,0-3.5,0v6.088H71.9V54.494a1.75,1.75,0,0,0-3.5,0v6.088H59.192V54.494a1.75,1.75,0,1,0-3.5,0v6.088H46.484V54.494a1.75,1.75,0,1,0-3.5,0v6.088h-3.25a1.75,1.75,0,0,0-1.75,1.75v29A1.75,1.75,0,0,0,39.734,93.082Zm1.75-29H86.108v25.5H41.484Z"/><path d="M82.858,88.082a1.75,1.75,0,0,0,1.75-1.75v-19a1.75,1.75,0,0,0-1.75-1.75H44.734a1.75,1.75,0,0,0-1.75,1.75v19a1.75,1.75,0,0,0,1.75,1.75Zm-36.375-19H81.108v15.5H46.484Z"/></svg>